<svg width="18" height="23" viewBox="0 0 18 23" fill="none" xmlns="http://www.w3.org/2000/svg">
<path d="M11.0954 1.82548C9.94923 0.641754 8.05078 0.641752 6.90463 1.82547L1.30641 7.60716C0.984892 7.93921 0.768842 8.35899 0.685476 8.81361C0.0055905 12.5212 -0.0445957 16.3169 0.537027 20.0413L0.742947 21.3598C0.807987 21.7763 1.16669 22.0833 1.58822 22.0833H5.50001C5.82217 22.0833 6.08334 21.8222 6.08334 21.5V13.3333H11.9167V21.5C11.9167 21.8222 12.1778 22.0833 12.5 22.0833H16.4117C16.8333 22.0833 17.192 21.7763 17.257 21.3598L17.4629 20.0413C18.0446 16.3169 17.9944 12.5212 17.3145 8.81361C17.2311 8.35899 17.0151 7.93921 16.6936 7.60716L11.0954 1.82548Z" fill="#FF3440"/>
</svg>
