<svg width="24" height="21" viewBox="0 0 24 21" fill="none" xmlns="http://www.w3.org/2000/svg">
<path fill-rule="evenodd" clip-rule="evenodd" d="M11.9999 0.374634L20.4858 0.614562C21.9852 0.656957 23.2254 1.79522 23.3959 3.28552C23.7734 6.5844 23.7734 9.91556 23.3959 13.2144C23.2254 14.7047 21.9852 15.843 20.4858 15.8854L13.4583 16.0841V18.4583H17.8333C18.3165 18.4583 18.7083 18.8501 18.7083 19.3333C18.7083 19.8166 18.3165 20.2083 17.8333 20.2083H6.1666C5.68335 20.2083 5.2916 19.8166 5.2916 19.3333C5.2916 18.8501 5.68335 18.4583 6.1666 18.4583H10.5416V16.0841L3.51401 15.8854C2.01459 15.843 0.774401 14.7047 0.603886 13.2144C0.226439 9.91556 0.226439 6.5844 0.603886 3.28552C0.774401 1.79522 2.01459 0.656957 3.51401 0.614562L11.9999 0.374634ZM3.83326 12.0417C3.35001 12.0417 2.95826 12.4334 2.95826 12.9167C2.95826 13.3999 3.35001 13.7917 3.83326 13.7917H20.1666C20.6498 13.7917 21.0416 13.3999 21.0416 12.9167C21.0416 12.4334 20.6498 12.0417 20.1666 12.0417H3.83326Z" fill="#FF3440"/>
</svg>
