<svg width="20" height="20" viewBox="0 0 20 20" fill="none" xmlns="http://www.w3.org/2000/svg">
<path d="M10.0002 0.375C7.58392 0.375 5.62516 2.33375 5.62516 4.75C5.62516 7.16625 7.58392 9.125 10.0002 9.125C12.4164 9.125 14.3752 7.16625 14.3752 4.75C14.3752 2.33375 12.4164 0.375 10.0002 0.375Z" fill="#FF3440"/>
<path d="M5.3335 11.4583C2.91725 11.4583 0.958496 13.4171 0.958496 15.8333V17.2197C0.958496 18.0984 1.59536 18.8477 2.46265 18.9893C7.45461 19.8043 12.5457 19.8043 17.5377 18.9893C18.405 18.8477 19.0418 18.0984 19.0418 17.2197V15.8333C19.0418 13.4171 17.0831 11.4583 14.6668 11.4583H14.2691C14.0539 11.4583 13.84 11.4924 13.6354 11.5592L12.6256 11.8889C10.9196 12.446 9.08068 12.446 7.37468 11.8889L6.36491 11.5592C6.16031 11.4924 5.94642 11.4583 5.73118 11.4583H5.3335Z" fill="#FF3440"/>
</svg>
